<svg xmlns="http://www.w3.org/2000/svg" width="76.95" height="76.95" viewBox="0 0 76.95 76.95">
  <defs>
    <style>
      .cls-1 {
        fill: #db093b;
      }
    </style>
  </defs>
  <g id="Layer_2" data-name="Layer 2">
    <g id="Layer_1-2" data-name="Layer 1">
      <path class="cls-1" d="M38.47,29.31a9.16,9.16,0,1,0,9.17,9.16A9.15,9.15,0,0,0,38.47,29.31Zm21.42-7a9.24,9.24,0,0,0-5.22-5.22c-3.61-1.43-12.19-1.11-16.2-1.11s-12.58-.33-16.2,1.11a9.27,9.27,0,0,0-5.22,5.22c-1.42,3.61-1.1,12.2-1.1,16.2s-.32,12.59,1.11,16.2a9.26,9.26,0,0,0,5.22,5.23c3.61,1.42,12.2,1.1,16.2,1.1s12.58.33,16.2-1.1a9.26,9.26,0,0,0,5.22-5.23c1.43-3.6,1.1-12.2,1.1-16.2s.33-12.58-1.1-16.2ZM38.47,52.56A14.09,14.09,0,1,1,52.56,38.47,14.08,14.08,0,0,1,38.47,52.56ZM53.14,27.09a3.29,3.29,0,1,1,3.28-3.29h0a3.27,3.27,0,0,1-3.26,3.29ZM68.7,0H8.24A8.24,8.24,0,0,0,0,8.24V68.7A8.24,8.24,0,0,0,8.24,77H68.7A8.25,8.25,0,0,0,77,68.7V8.24A8.24,8.24,0,0,0,68.7,0ZM65.76,49.81c-.22,4.4-1.22,8.3-4.44,11.51s-7.11,4.23-11.51,4.44-18.13.25-22.67,0-8.29-1.23-11.51-4.44S11.4,54.2,11.2,49.81s-.26-18.14,0-22.67,1.21-8.31,4.43-11.51,7.13-4.22,11.51-4.43c4.54-.25,18.14-.25,22.67,0s8.31,1.23,11.51,4.44,4.23,7.12,4.44,11.52S66,45.27,65.76,49.81Z"/>
    </g>
  </g>
</svg>
