<svg xmlns="http://www.w3.org/2000/svg" width="76.95" height="76.95" viewBox="0 0 76.95 76.95">
  <defs>
    <style>
      .cls-1 {
        fill: #db093b;
      }
    </style>
  </defs>
  <g id="Layer_2" data-name="Layer 2">
    <g id="Layer_1-2" data-name="Layer 1">
      <path class="cls-1" d="M68.7,0H8.24A8.24,8.24,0,0,0,0,8.24V68.7A8.25,8.25,0,0,0,8.24,77H68.7A8.26,8.26,0,0,0,77,68.7V8.24A8.25,8.25,0,0,0,68.7,0ZM60.3,27.27c0,.49,0,1,0,1.46,0,14.9-11.34,32.05-32.05,32.05A31.87,31.87,0,0,1,11,55.73a22.32,22.32,0,0,0,2.72.14,22.56,22.56,0,0,0,14-4.81,11.27,11.27,0,0,1-10.53-7.81A12,12,0,0,0,22.24,43a11.26,11.26,0,0,1-9-11.06v-.14a11.13,11.13,0,0,0,5.08,1.43,11.26,11.26,0,0,1-5-9.38,11.09,11.09,0,0,1,1.53-5.68A32,32,0,0,0,38,30,11.29,11.29,0,0,1,57.26,19.7,22.24,22.24,0,0,0,64.41,17a11.21,11.21,0,0,1-4.95,6.2A22.49,22.49,0,0,0,66,21.44,23.36,23.36,0,0,1,60.3,27.27Z"/>
    </g>
  </g>
</svg>
